<?xml version="1.0" encoding="UTF-8" standalone="no"?>
<!-- Created with Inkscape (http://www.inkscape.org/) -->

<svg
   xmlns:dc="http://purl.org/dc/elements/1.1/"
   xmlns:cc="http://creativecommons.org/ns#"
   xmlns:rdf="http://www.w3.org/1999/02/22-rdf-syntax-ns#"
   xmlns:svg="http://www.w3.org/2000/svg"
   xmlns="http://www.w3.org/2000/svg"
   version="1.1"
   width="100%"
   height="100%"
   viewBox="0 0 1000 1000"
   id="svg2"
   xml:space="preserve"><defs
     id="defs12" /><metadata
     id="metadata4"> Svg Vector Icons : http://www.onlinewebfonts.com/icon <rdf:RDF><cc:Work
     rdf:about=""><dc:format>image/svg+xml</dc:format><dc:type
       rdf:resource="http://purl.org/dc/dcmitype/StillImage" /><dc:title></dc:title></cc:Work></rdf:RDF></metadata><g
     id="arrow"><path
       d="m 380.5,100.5 -350,350 c -27.3,27.3 -27.3,71.6 0,99 l 350,350 c 27.3,27.3 71.6,27.3 99,0 27.3,-27.3 27.3,-71.6 0,-99 L 249,570 h 671 c 38.7,0 70,-31.3 70,-70 0,-38.7 -31.3,-70 -70,-70 H 249 L 479.5,199.5 C 493.2,185.8 500,167.9 500,150 c 0,-17.9 -6.8,-35.8 -20.5,-49.5 -27.4,-27.3 -71.7,-27.3 -99,0 z"
       id="path8" /></g></svg>