<?xml version="1.0" encoding="UTF-8" standalone="no"?>
<!-- Created with Inkscape (http://www.inkscape.org/) -->

<svg
   xmlns:dc="http://purl.org/dc/elements/1.1/"
   xmlns:cc="http://creativecommons.org/ns#"
   xmlns:rdf="http://www.w3.org/1999/02/22-rdf-syntax-ns#"
   xmlns:svg="http://www.w3.org/2000/svg"
   xmlns="http://www.w3.org/2000/svg"
   xmlns:xlink="http://www.w3.org/1999/xlink"
   version="1.1"
   width="100%"
   height="100%"
   viewBox="0 0 30 30"
   id="svg2"
   xml:space="preserve"><metadata
     id="metadata25"><rdf:RDF><cc:Work
         rdf:about=""><dc:format>image/svg+xml</dc:format><dc:type
           rdf:resource="http://purl.org/dc/dcmitype/StillImage" /><dc:title></dc:title></cc:Work></rdf:RDF></metadata><defs
     id="defs23" /><g
     transform="matrix(1.25,0,0,-1.25,0,47.5)"
     id="smile"><g
       id="g14"><g
         id="g5"><defs
           id="defs7"><rect
             width="30"
             height="30"
             x="-3"
             y="11"
             id="SVGID_1_" /></defs><clipPath
           id="SVGID_2_"><use
             id="use11"
             style="overflow:visible"
             x="0"
             y="0"
             width="30"
             height="30"
             xlink:href="#SVGID_1_" /></clipPath><g
           clip-path="url(#SVGID_2_)"
           id="g16"><g
             transform="translate(36,20)"
             id="g22"><path
               d="m -13.3,6.6 c 0,-5.9 -4.8,-10.7 -10.7,-10.7 -5.9,0 -10.7,4.8 -10.7,10.7 0,5.9 4.8,10.7 10.7,10.7 5.9,0.1 10.7,-4.7 10.7,-10.7"
               id="path24"
               style="fill:#ffcc4d" /></g><g
             transform="translate(15,21.5)"
             id="g26"><path
               d="m -5.5,6.9 c 0,-1.2 -0.7,-2.2 -1.6,-2.2 -0.9,0 -1.6,1 -1.6,2.2 0,1.2 0.7,2.2 1.6,2.2 0.9,0 1.6,-1 1.6,-2.2"
               id="path28"
               style="fill:#664500" /></g><g
             transform="translate(28,21.5)"
             id="g30"><path
               d="m -10.3,6.9 c 0,-1.2 -0.7,-2.2 -1.6,-2.2 -0.9,0 -1.6,1 -1.6,2.2 0,1.2 0.7,2.2 1.6,2.2 0.9,0 1.6,-1 1.6,-2.2"
               id="path32"
               style="fill:#664500" /></g><path
             d="m 17.9,24 c -0.1,0.1 -0.3,0.1 -0.4,0 C 17.5,24 15,22.2 12,22.2 9,22.2 6.5,24 6.5,24 6.4,24.1 6.2,24.1 6.1,24 6,23.9 6,23.8 6,23.6 c 0.1,-0.1 2,-3.3 6,-3.3 4,0 5.9,3.2 6,3.3 0,0.2 0,0.3 -0.1,0.4"
             id="path32_1_"
             style="fill:#664500" /></g></g></g></g></svg>